<svg xmlns="http://www.w3.org/2000/svg" xmlns:xlink="http://www.w3.org/1999/xlink" id="processonSvg1000" viewBox="15.0 40.37342215988784 1015.0 978.469319775596" width="1015.0" height="978.469319775596"><defs id="ProcessOnDefs1001"><marker id="ProcessOnMarker1009" markerUnits="userSpaceOnUse" orient="auto" markerWidth="16.23606797749979" markerHeight="10.550836550532098" viewBox="-1.0 -1.3763819204711736 16.23606797749979 10.550836550532098" refX="-1.0" refY="3.8990363547948754"><path id="ProcessOnPath1010" d="M12.0 3.8990363547948754L0.0 7.798072709589751V0.0Z" stroke="#dddddd" stroke-width="2.0" fill="#dddddd" transform="matrix(1.0,0.0,0.0,1.0,0.0,0.0)"/></marker><marker id="ProcessOnMarker1017" markerUnits="userSpaceOnUse" orient="auto" markerWidth="16.23606797749979" markerHeight="10.550836550532098" viewBox="-1.0 -1.3763819204711736 16.23606797749979 10.550836550532098" refX="-1.0" refY="3.8990363547948754"><path id="ProcessOnPath1018" d="M12.0 3.8990363547948754L0.0 7.798072709589751V0.0Z" stroke="#dddddd" stroke-width="2.0" fill="#dddddd" transform="matrix(1.0,0.0,0.0,1.0,0.0,0.0)"/></marker><marker id="ProcessOnMarker1021" markerUnits="userSpaceOnUse" orient="auto" markerWidth="16.23606797749979" markerHeight="10.550836550532098" viewBox="-1.0 -1.3763819204711736 16.23606797749979 10.550836550532098" refX="-1.0" refY="3.8990363547948754"><path id="ProcessOnPath1022" d="M12.0 3.8990363547948754L0.0 7.798072709589751V0.0Z" stroke="#dddddd" stroke-width="2.0" fill="#dddddd" transform="matrix(1.0,0.0,0.0,1.0,0.0,0.0)"/></marker><marker id="ProcessOnMarker1025" markerUnits="userSpaceOnUse" orient="auto" markerWidth="16.23606797749979" markerHeight="10.550836550532098" viewBox="-1.0 -1.3763819204711736 16.23606797749979 10.550836550532098" refX="-1.0" refY="3.8990363547948754"><path id="ProcessOnPath1026" d="M12.0 3.8990363547948754L0.0 7.798072709589751V0.0Z" stroke="#dddddd" stroke-width="2.0" fill="#dddddd" transform="matrix(1.0,0.0,0.0,1.0,0.0,0.0)"/></marker><marker id="ProcessOnMarker1029" markerUnits="userSpaceOnUse" orient="auto" markerWidth="16.23606797749979" markerHeight="10.550836550532098" viewBox="-1.0 -1.3763819204711736 16.23606797749979 10.550836550532098" refX="-1.0" refY="3.8990363547948754"><path id="ProcessOnPath1030" d="M12.0 3.8990363547948754L0.0 7.798072709589751V0.0Z" stroke="#dddddd" stroke-width="2.0" fill="#dddddd" transform="matrix(1.0,0.0,0.0,1.0,0.0,0.0)"/></marker><marker id="ProcessOnMarker1035" markerUnits="userSpaceOnUse" orient="auto" markerWidth="16.23606797749979" markerHeight="10.550836550532098" viewBox="-1.0 -1.3763819204711736 16.23606797749979 10.550836550532098" refX="-1.0" refY="3.8990363547948754"><path id="ProcessOnPath1036" d="M12.0 3.8990363547948754L0.0 7.798072709589751V0.0Z" stroke="#dddddd" stroke-width="2.0" fill="#dddddd" transform="matrix(1.0,0.0,0.0,1.0,0.0,0.0)"/></marker><marker id="ProcessOnMarker1055" markerUnits="userSpaceOnUse" orient="auto" markerWidth="16.23606797749979" markerHeight="10.550836550532098" viewBox="-1.0 -1.3763819204711736 16.23606797749979 10.550836550532098" refX="-1.0" refY="3.8990363547948754"><path id="ProcessOnPath1056" d="M12.0 3.8990363547948754L0.0 7.798072709589751V0.0Z" stroke="#dddddd" stroke-width="2.0" fill="#dddddd" transform="matrix(1.0,0.0,0.0,1.0,0.0,0.0)"/></marker><marker id="ProcessOnMarker1065" markerUnits="userSpaceOnUse" orient="auto" markerWidth="16.23606797749979" markerHeight="10.550836550532098" viewBox="-1.0 -1.3763819204711736 16.23606797749979 10.550836550532098" refX="-1.0" refY="3.8990363547948754"><path id="ProcessOnPath1066" d="M12.0 3.8990363547948754L0.0 7.798072709589751V0.0Z" stroke="#dddddd" stroke-width="2.0" fill="#dddddd" transform="matrix(1.0,0.0,0.0,1.0,0.0,0.0)"/></marker><marker id="ProcessOnMarker1075" markerUnits="userSpaceOnUse" orient="auto" markerWidth="16.23606797749979" markerHeight="10.550836550532098" viewBox="-1.0 -1.3763819204711736 16.23606797749979 10.550836550532098" refX="-1.0" refY="3.8990363547948754"><path id="ProcessOnPath1076" d="M12.0 3.8990363547948754L0.0 7.798072709589751V0.0Z" stroke="#dddddd" stroke-width="2.0" fill="#dddddd" transform="matrix(1.0,0.0,0.0,1.0,0.0,0.0)"/></marker><marker id="ProcessOnMarker1079" markerUnits="userSpaceOnUse" orient="auto" markerWidth="16.23606797749979" markerHeight="10.550836550532098" viewBox="-1.0 -1.3763819204711736 16.23606797749979 10.550836550532098" refX="-1.0" refY="3.8990363547948754"><path id="ProcessOnPath1080" d="M12.0 3.8990363547948754L0.0 7.798072709589751V0.0Z" stroke="#dddddd" stroke-width="2.0" fill="#dddddd" transform="matrix(1.0,0.0,0.0,1.0,0.0,0.0)"/></marker><marker id="ProcessOnMarker1087" markerUnits="userSpaceOnUse" orient="auto" markerWidth="16.23606797749979" markerHeight="10.550836550532098" viewBox="-1.0 -1.3763819204711736 16.23606797749979 10.550836550532098" refX="-1.0" refY="3.8990363547948754"><path id="ProcessOnPath1088" d="M12.0 3.8990363547948754L0.0 7.798072709589751V0.0Z" stroke="#dddddd" stroke-width="2.0" fill="#dddddd" transform="matrix(1.0,0.0,0.0,1.0,0.0,0.0)"/></marker></defs><g id="ProcessOnG1002"><path id="ProcessOnPath1003" d="M15.0 40.37342215988784H1030.0V1018.8427419354838H15.0V40.37342215988781Z" fill="#ffffff"/><g id="ProcessOnG1004"><g id="ProcessOnG1005" transform="matrix(1.0,0.0,0.0,1.0,570.6690042075736,86.74894810659191)" opacity="1.0"><path id="ProcessOnPath1006" d="M0.0 33.453015427769984C0.0 -11.151005142589995 167.76437587657784 -11.151005142589995 167.76437587657784 33.453015427769984C167.76437587657784 78.05703599812996 0.0 78.05703599812996 0.0 33.453015427769984Z" stroke="#dddddd" stroke-width="2.0" stroke-dasharray="none" opacity="1.0" fill="#dddddd"/></g><g id="ProcessOnG1007"><path id="ProcessOnPath1008" d="M654.5511921458625 153.65497896213188L654.5511921458625 181.12201963534363L654.5511921458625 181.12201963534363L654.5511921458625 193.35299233105562" stroke="#dddddd" stroke-width="2.0" stroke-dasharray="none" fill="none" marker-end="url(#ProcessOnMarker1009)"/></g><g id="ProcessOnG1011" transform="matrix(1.0,0.0,0.0,1.0,580.1556802244039,208.58906030855542)" opacity="1.0"><path id="ProcessOnPath1012" d="M0.0 4.0Q0.0 0.0 4.0 0.0L144.79102384291727 0.0Q148.79102384291727 0.0 148.79102384291727 4.0L148.79102384291727 44.9312762973352Q148.79102384291727 48.9312762973352 144.79102384291727 48.9312762973352L4.0 48.9312762973352Q0.0 48.9312762973352 0.0 44.9312762973352Z" stroke="#dddddd" stroke-width="2.0" stroke-dasharray="none" opacity="1.0" fill="#dddddd"/><g id="ProcessOnG1013" transform="matrix(1.0,0.0,0.0,1.0,10.0,16.3406381486676)"><text id="ProcessOnText1014" fill="#1a3300" font-size="13" x="63.395511921458635" y="13.325" font-family="微软雅黑" font-weight="bold" font-style="normal" text-decoration="underline" family="微软雅黑" text-anchor="middle" size="13">主题页面</text></g></g><g id="ProcessOnG1015"><path id="ProcessOnPath1016" d="M728.9467040673212 233.05469845722303L764.6339410939692 233.05469845722303L764.6339410939692 233.05469845722303L785.0851101431173 233.05469845722303" stroke="#dddddd" stroke-width="2.0" stroke-dasharray="none" fill="none" marker-end="url(#ProcessOnMarker1017)"/></g><g id="ProcessOnG1019"><path id="ProcessOnPath1020" d="M654.5511921458625 257.52033660589063L654.5511921458625 403.2664796633941L654.5511921458626 403.2664796633941L654.5511921458626 533.7765547433977" stroke="#dddddd" stroke-width="2.0" stroke-dasharray="none" fill="none" marker-end="url(#ProcessOnMarker1021)"/></g><g id="ProcessOnG1023"><path id="ProcessOnPath1024" d="M654.5511921458625 642.6549789621318L654.5511921458625 718.3856942496493L654.5511921458626 718.3856942496493L654.5511921458626 778.880341559667" stroke="#dddddd" stroke-width="2.0" stroke-dasharray="none" fill="none" marker-end="url(#ProcessOnMarker1025)"/></g><g id="ProcessOnG1027"><path id="ProcessOnPath1028" d="M580.1556802244039 233.05469845722303L478.07784011220195 233.05469845722303L478.07784011220195 233.05469845722303L391.2360679774998 233.05469845722303" stroke="#dddddd" stroke-width="2.0" stroke-dasharray="none" fill="none" marker-end="url(#ProcessOnMarker1029)"/></g><g id="ProcessOnG1031"><path id="ProcessOnPath1032" d="M526.0 232.0L526.0 168.5L526.0 168.5L526.0 105.0" stroke="#dddddd" stroke-width="2.0" stroke-dasharray="none" fill="none"/></g><g id="ProcessOnG1033"><path id="ProcessOnPath1034" d="M527.0 105.0L451.5 105.0L451.5 105.01420056100986L391.2360679774998 105.01420056100986" stroke="#dddddd" stroke-width="2.0" stroke-dasharray="none" fill="none" marker-end="url(#ProcessOnMarker1035)"/></g><g id="ProcessOnG1037"><path id="ProcessOnPath1038" d="M169.0 105.0L105.0 105.0" stroke="#dddddd" stroke-width="2.0" stroke-dasharray="none" fill="none"/></g><g id="ProcessOnG1039"><path id="ProcessOnPath1040" d="M172.0 233.0L104.0 233.0" stroke="#dddddd" stroke-width="2.0" stroke-dasharray="none" fill="none"/></g><g id="ProcessOnG1041"><path id="ProcessOnPath1042" d="M169.0 350.0L105.0 350.0" stroke="#dddddd" stroke-width="2.0" stroke-dasharray="none" fill="none"/></g><g id="ProcessOnG1043" transform="matrix(1.0,0.0,0.0,1.0,170.0,60.37342215988784)" opacity="1.0"><path id="ProcessOnPath1044" d="M0.0 44.64077840112202L103.0 0.0L206.0 44.64077840112202L103.0 89.28155680224404L0.0 44.64077840112202Z" stroke="#dddddd" stroke-width="2.0" stroke-dasharray="none" opacity="1.0" fill="#dddddd"/></g><g id="ProcessOnG1045"><path id="ProcessOnPath1046" d="M170.0 479.0L106.0 479.0" stroke="#dddddd" stroke-width="2.0" stroke-dasharray="none" fill="none"/></g><g id="ProcessOnG1047"><path id="ProcessOnPath1048" d="M654.0 349.0L555.0 349.359221598878" stroke="#dddddd" stroke-width="2.0" stroke-dasharray="none" fill="none"/></g><g id="ProcessOnG1049" transform="matrix(1.0,0.0,0.0,1.0,457.81065918653576,325.03883239831697)" opacity="1.0"><path id="ProcessOnPath1050" d="M0.0 4.0Q0.0 0.0 4.0 0.0L93.18934081346424 0.0Q97.18934081346424 0.0 97.18934081346424 4.0L97.18934081346424 44.64077840112202Q97.18934081346424 48.64077840112202 93.18934081346424 48.64077840112202L4.0 48.64077840112202Q0.0 48.64077840112202 0.0 44.64077840112202Z" stroke="#dddddd" stroke-width="2.0" stroke-dasharray="none" opacity="1.0" fill="#dddddd"/><g id="ProcessOnG1051" transform="matrix(1.0,0.0,0.0,1.0,10.0,16.19538920056101)"><text id="ProcessOnText1052" fill="#1a3300" font-size="13" x="37.59467040673212" y="13.325" font-family="微软雅黑" font-weight="bold" font-style="normal" text-decoration="underline" family="微软雅黑" text-anchor="middle" size="13">个人详情页</text></g></g><g id="ProcessOnG1053"><path id="ProcessOnPath1054" d="M457.81065918653576 349.359221598878L391.2360679774998 349.359221598878" stroke="#dddddd" stroke-width="2.0" stroke-dasharray="none" fill="none" marker-end="url(#ProcessOnMarker1055)"/></g><g id="ProcessOnG1057" transform="matrix(1.0,0.0,0.0,1.0,457.81065918653576,454.53883239831697)" opacity="1.0"><path id="ProcessOnPath1058" d="M0.0 4.0Q0.0 0.0 4.0 0.0L93.18934081346424 0.0Q97.18934081346424 0.0 97.18934081346424 4.0L97.18934081346424 44.64077840112202Q97.18934081346424 48.64077840112202 93.18934081346424 48.64077840112202L4.0 48.64077840112202Q0.0 48.64077840112202 0.0 44.64077840112202Z" stroke="#dddddd" stroke-width="2.0" stroke-dasharray="none" opacity="1.0" fill="#dddddd"/><g id="ProcessOnG1059" transform="matrix(1.0,0.0,0.0,1.0,10.0,16.19538920056101)"><text id="ProcessOnText1060" fill="#1a3300" font-size="13" x="37.59467040673212" y="13.325" font-family="微软雅黑" font-weight="bold" font-style="normal" text-decoration="underline" family="微软雅黑" text-anchor="middle" size="13">排行页</text></g></g><g id="ProcessOnG1061"><path id="ProcessOnPath1062" d="M653.0 481.0L554.0 481.359221598878" stroke="#dddddd" stroke-width="2.0" stroke-dasharray="none" fill="none"/></g><g id="ProcessOnG1063"><path id="ProcessOnPath1064" d="M457.81065918653576 479.359221598878L391.235783432496 478.9523377257005" stroke="#dddddd" stroke-width="2.0" stroke-dasharray="none" fill="none" marker-end="url(#ProcessOnMarker1065)"/></g><g id="ProcessOnG1067"><path id="ProcessOnPath1068" d="M105.0 104.0L105.0 481.0" stroke="#dddddd" stroke-width="2.0" stroke-dasharray="none" fill="none"/></g><g id="ProcessOnG1069"><path id="ProcessOnPath1070" d="M105.0 291.0L35.0 291.0" stroke="#dddddd" stroke-width="2.0" stroke-dasharray="none" fill="none"/></g><g id="ProcessOnG1071"><path id="ProcessOnPath1072" d="M37.0 292.0L37.0 954.0" stroke="#dddddd" stroke-width="2.0" stroke-dasharray="none" fill="none"/></g><g id="ProcessOnG1073"><path id="ProcessOnPath1074" d="M36.0 954.0L105.43297957498055 954.1656205843859" stroke="#dddddd" stroke-width="2.0" stroke-dasharray="none" fill="none" marker-end="url(#ProcessOnMarker1075)"/></g><g id="ProcessOnG1077"><path id="ProcessOnPath1078" d="M288.4333800841514 954.2019635343618L341.7639320225002 954.2019635343618" stroke="#dddddd" stroke-width="2.0" stroke-dasharray="none" fill="none" marker-end="url(#ProcessOnMarker1079)"/></g><g id="ProcessOnG1081" transform="matrix(1.0,0.0,0.0,1.0,357.0,930.6009817671809)" opacity="1.0"><path id="ProcessOnPath1082" d="M0.0 4.0Q0.0 0.0 4.0 0.0L127.0 0.0Q131.0 0.0 131.0 4.0L131.0 43.20196353436188Q131.0 47.20196353436188 127.0 47.20196353436188L4.0 47.20196353436188Q0.0 47.20196353436188 0.0 43.20196353436188Z" stroke="#dddddd" stroke-width="2.0" stroke-dasharray="none" opacity="1.0" fill="#dddddd"/><g id="ProcessOnG1083" transform="matrix(1.0,0.0,0.0,1.0,10.0,15.47598176718094)"><text id="ProcessOnText1084" fill="#1a3300" font-size="13" x="54.5" y="13.325" font-family="微软雅黑" font-weight="bold" font-style="normal" text-decoration="underline" family="微软雅黑" text-anchor="middle" size="13">个人详情页</text></g></g><g id="ProcessOnG1085"><path id="ProcessOnPath1086" d="M488.0 954.2019635343618L536.3151241683627 954.2019635343618" stroke="#dddddd" stroke-width="2.0" stroke-dasharray="none" fill="none" marker-end="url(#ProcessOnMarker1087)"/></g><g id="ProcessOnG1089" transform="matrix(1.0,0.0,0.0,1.0,661.0,297.03883239831697)" opacity="1.0"><path id="ProcessOnPath1090" d="M0.0 0.0L20.0 0.0L20.0 159.96116760168303L0.0 159.96116760168303Z" stroke="none" stroke-width="0.0" stroke-dasharray="none" opacity="1.0" fill="none"/><g id="ProcessOnG1091" transform="matrix(1.0,0.0,0.0,1.0,0.0,55.605583800841515)"><text id="ProcessOnText1092" fill="#1a3300" font-size="13" x="9.0" y="13.325" font-family="微软雅黑" font-weight="bold" font-style="normal" text-decoration="none" family="微软雅黑" text-anchor="middle" size="13">转</text><text id="ProcessOnText1093" fill="#1a3300" font-size="13" x="9.0" y="29.575" font-family="微软雅黑" font-weight="bold" font-style="normal" text-decoration="none" family="微软雅黑" text-anchor="middle" size="13">化</text><text id="ProcessOnText1094" fill="#1a3300" font-size="13" x="9.0" y="45.825" font-family="微软雅黑" font-weight="bold" font-style="normal" text-decoration="none" family="微软雅黑" text-anchor="middle" size="13">率</text></g></g><g id="ProcessOnG1095" transform="matrix(1.0,0.0,0.0,1.0,661.0,594.718443197756)" opacity="1.0"><path id="ProcessOnPath1096" d="M0.0 0.0L20.0 0.0L20.0 159.96116760168303L0.0 159.96116760168303Z" stroke="none" stroke-width="0.0" stroke-dasharray="none" opacity="1.0" fill="none"/><g id="ProcessOnG1097" transform="matrix(1.0,0.0,0.0,1.0,0.0,55.605583800841515)"><text id="ProcessOnText1098" fill="#1a3300" font-size="13" x="9.0" y="13.325" font-family="微软雅黑" font-weight="bold" font-style="normal" text-decoration="none" family="微软雅黑" text-anchor="middle" size="13">上</text><text id="ProcessOnText1099" fill="#1a3300" font-size="13" x="9.0" y="29.575" font-family="微软雅黑" font-weight="bold" font-style="normal" text-decoration="none" family="微软雅黑" text-anchor="middle" size="13">化</text><text id="ProcessOnText1100" fill="#1a3300" font-size="13" x="9.0" y="45.825" font-family="微软雅黑" font-weight="bold" font-style="normal" text-decoration="none" family="微软雅黑" text-anchor="middle" size="13">率</text></g></g><g id="ProcessOnG1101" transform="matrix(1.0,0.0,0.0,1.0,190.0,68.0)" opacity="1.0"><path id="ProcessOnPath1102" d="M0.0 0.0L160.0 0.0L160.0 40.0L0.0 40.0Z" stroke="none" stroke-width="0.0" stroke-dasharray="none" opacity="1.0" fill="none"/><g id="ProcessOnG1103" transform="matrix(1.0,0.0,0.0,1.0,0.0,10.625)"><text id="ProcessOnText1104" fill="#000000" font-size="15" x="79.0" y="15.375" font-family="微软雅黑" font-weight="bold" font-style="normal" text-decoration="none" family="微软雅黑" text-anchor="middle" size="15">【分享活动】</text></g></g><g id="ProcessOnG1105" transform="matrix(1.0,0.0,0.0,1.0,218.5,97.0)" opacity="1.0"><path id="ProcessOnPath1106" d="M0.0 0.0L154.5 0.0L154.5 31.20196353436191L0.0 31.20196353436191Z" stroke="none" stroke-width="0.0" stroke-dasharray="none" opacity="1.0" fill="none"/><g id="ProcessOnG1107" transform="matrix(1.0,0.0,0.0,1.0,0.0,0.6009817671809543)"><text id="ProcessOnText1108" fill="#000000" font-size="12" x="0.0" y="12.3" font-family="微软雅黑" font-weight="normal" font-style="normal" text-decoration="none" family="微软雅黑" text-anchor="start" size="12">人数：</text><text id="ProcessOnText1109" fill="#000000" font-size="12" x="0.0" y="27.3" font-family="微软雅黑" font-weight="normal" font-style="normal" text-decoration="none" family="微软雅黑" text-anchor="start" size="12">次数：</text></g></g><g id="ProcessOnG1110" transform="matrix(1.0,0.0,0.0,1.0,170.0,188.413920056101)" opacity="1.0"><path id="ProcessOnPath1111" d="M0.0 44.64077840112202L103.0 0.0L206.0 44.64077840112202L103.0 89.28155680224404L0.0 44.64077840112202Z" stroke="#dddddd" stroke-width="2.0" stroke-dasharray="none" opacity="1.0" fill="#dddddd"/></g><g id="ProcessOnG1112" transform="matrix(1.0,0.0,0.0,1.0,190.0,196.0404978962132)" opacity="1.0"><path id="ProcessOnPath1113" d="M0.0 0.0L160.0 0.0L160.0 40.0L0.0 40.0Z" stroke="none" stroke-width="0.0" stroke-dasharray="none" opacity="1.0" fill="none"/><g id="ProcessOnG1114" transform="matrix(1.0,0.0,0.0,1.0,0.0,10.625)"><text id="ProcessOnText1115" fill="#000000" font-size="15" x="79.0" y="15.375" font-family="微软雅黑" font-weight="bold" font-style="normal" text-decoration="none" family="微软雅黑" text-anchor="middle" size="15">【邀请集赞】</text></g></g><g id="ProcessOnG1116" transform="matrix(1.0,0.0,0.0,1.0,218.5,225.0404978962132)" opacity="1.0"><path id="ProcessOnPath1117" d="M0.0 0.0L154.5 0.0L154.5 31.20196353436191L0.0 31.20196353436191Z" stroke="none" stroke-width="0.0" stroke-dasharray="none" opacity="1.0" fill="none"/><g id="ProcessOnG1118" transform="matrix(1.0,0.0,0.0,1.0,0.0,0.6009817671809543)"><text id="ProcessOnText1119" fill="#000000" font-size="12" x="0.0" y="12.3" font-family="微软雅黑" font-weight="normal" font-style="normal" text-decoration="none" family="微软雅黑" text-anchor="start" size="12">人数：</text><text id="ProcessOnText1120" fill="#000000" font-size="12" x="0.0" y="27.3" font-family="微软雅黑" font-weight="normal" font-style="normal" text-decoration="none" family="微软雅黑" text-anchor="start" size="12">次数：</text></g></g><g id="ProcessOnG1121" transform="matrix(1.0,0.0,0.0,1.0,170.0,304.71844319775596)" opacity="1.0"><path id="ProcessOnPath1122" d="M0.0 44.64077840112202L103.0 0.0L206.0 44.64077840112202L103.0 89.28155680224404L0.0 44.64077840112202Z" stroke="#dddddd" stroke-width="2.0" stroke-dasharray="none" opacity="1.0" fill="#dddddd"/></g><g id="ProcessOnG1123" transform="matrix(1.0,0.0,0.0,1.0,190.0,312.34502103786815)" opacity="1.0"><path id="ProcessOnPath1124" d="M0.0 0.0L160.0 0.0L160.0 40.0L0.0 40.0Z" stroke="none" stroke-width="0.0" stroke-dasharray="none" opacity="1.0" fill="none"/><g id="ProcessOnG1125" transform="matrix(1.0,0.0,0.0,1.0,0.0,10.625)"><text id="ProcessOnText1126" fill="#000000" font-size="15" x="79.0" y="15.375" font-family="微软雅黑" font-weight="bold" font-style="normal" text-decoration="none" family="微软雅黑" text-anchor="middle" size="15">【邀请集赞】</text></g></g><g id="ProcessOnG1127" transform="matrix(1.0,0.0,0.0,1.0,218.5,341.34502103786815)" opacity="1.0"><path id="ProcessOnPath1128" d="M0.0 0.0L154.5 0.0L154.5 31.20196353436191L0.0 31.20196353436191Z" stroke="none" stroke-width="0.0" stroke-dasharray="none" opacity="1.0" fill="none"/><g id="ProcessOnG1129" transform="matrix(1.0,0.0,0.0,1.0,0.0,0.6009817671809543)"><text id="ProcessOnText1130" fill="#000000" font-size="12" x="0.0" y="12.3" font-family="微软雅黑" font-weight="normal" font-style="normal" text-decoration="none" family="微软雅黑" text-anchor="start" size="12">人数：</text><text id="ProcessOnText1131" fill="#000000" font-size="12" x="0.0" y="27.3" font-family="微软雅黑" font-weight="normal" font-style="normal" text-decoration="none" family="微软雅黑" text-anchor="start" size="12">次数：</text></g></g><g id="ProcessOnG1132" transform="matrix(1.0,0.0,0.0,1.0,170.0,434.21844319775596)" opacity="1.0"><path id="ProcessOnPath1133" d="M0.0 44.64077840112202L103.0 0.0L206.0 44.64077840112202L103.0 89.28155680224404L0.0 44.64077840112202Z" stroke="#dddddd" stroke-width="2.0" stroke-dasharray="none" opacity="1.0" fill="#dddddd"/></g><g id="ProcessOnG1134" transform="matrix(1.0,0.0,0.0,1.0,190.0,441.84502103786815)" opacity="1.0"><path id="ProcessOnPath1135" d="M0.0 0.0L160.0 0.0L160.0 40.0L0.0 40.0Z" stroke="none" stroke-width="0.0" stroke-dasharray="none" opacity="1.0" fill="none"/><g id="ProcessOnG1136" transform="matrix(1.0,0.0,0.0,1.0,0.0,10.625)"><text id="ProcessOnText1137" fill="#000000" font-size="15" x="79.0" y="15.375" font-family="微软雅黑" font-weight="bold" font-style="normal" text-decoration="none" family="微软雅黑" text-anchor="middle" size="15">【邀请集赞】</text></g></g><g id="ProcessOnG1138" transform="matrix(1.0,0.0,0.0,1.0,218.5,470.84502103786815)" opacity="1.0"><path id="ProcessOnPath1139" d="M0.0 0.0L154.5 0.0L154.5 31.20196353436191L0.0 31.20196353436191Z" stroke="none" stroke-width="0.0" stroke-dasharray="none" opacity="1.0" fill="none"/><g id="ProcessOnG1140" transform="matrix(1.0,0.0,0.0,1.0,0.0,0.6009817671809543)"><text id="ProcessOnText1141" fill="#000000" font-size="12" x="0.0" y="12.3" font-family="微软雅黑" font-weight="normal" font-style="normal" text-decoration="none" family="微软雅黑" text-anchor="start" size="12">人数：</text><text id="ProcessOnText1142" fill="#000000" font-size="12" x="0.0" y="27.3" font-family="微软雅黑" font-weight="normal" font-style="normal" text-decoration="none" family="微软雅黑" text-anchor="start" size="12">次数：</text></g></g><g id="ProcessOnG1143" transform="matrix(1.0,0.0,0.0,1.0,804.0,188.413920056101)" opacity="1.0"><path id="ProcessOnPath1144" d="M0.0 44.64077840112202L103.0 0.0L206.0 44.64077840112202L103.0 89.28155680224404L0.0 44.64077840112202Z" stroke="#dddddd" stroke-width="2.0" stroke-dasharray="none" opacity="1.0" fill="#dddddd"/></g><g id="ProcessOnG1145" transform="matrix(1.0,0.0,0.0,1.0,824.0,196.0404978962132)" opacity="1.0"><path id="ProcessOnPath1146" d="M0.0 0.0L160.0 0.0L160.0 40.0L0.0 40.0Z" stroke="none" stroke-width="0.0" stroke-dasharray="none" opacity="1.0" fill="none"/><g id="ProcessOnG1147" transform="matrix(1.0,0.0,0.0,1.0,0.0,10.625)"><text id="ProcessOnText1148" fill="#000000" font-size="15" x="79.0" y="15.375" font-family="微软雅黑" font-weight="bold" font-style="normal" text-decoration="none" family="微软雅黑" text-anchor="middle" size="15">【点赞】</text></g></g><g id="ProcessOnG1149" transform="matrix(1.0,0.0,0.0,1.0,852.5,225.0404978962132)" opacity="1.0"><path id="ProcessOnPath1150" d="M0.0 0.0L154.5 0.0L154.5 31.20196353436191L0.0 31.20196353436191Z" stroke="none" stroke-width="0.0" stroke-dasharray="none" opacity="1.0" fill="none"/><g id="ProcessOnG1151" transform="matrix(1.0,0.0,0.0,1.0,0.0,0.6009817671809543)"><text id="ProcessOnText1152" fill="#000000" font-size="12" x="0.0" y="12.3" font-family="微软雅黑" font-weight="normal" font-style="normal" text-decoration="none" family="微软雅黑" text-anchor="start" size="12">人数：</text><text id="ProcessOnText1153" fill="#000000" font-size="12" x="0.0" y="27.3" font-family="微软雅黑" font-weight="normal" font-style="normal" text-decoration="none" family="微软雅黑" text-anchor="start" size="12">次数：</text></g></g><g id="ProcessOnG1154" transform="matrix(1.0,0.0,0.0,1.0,551.5511921458625,553.3734221598878)" opacity="1.0"><path id="ProcessOnPath1155" d="M0.0 44.64077840112202L103.0 0.0L206.0 44.64077840112202L103.0 89.28155680224404L0.0 44.64077840112202Z" stroke="#dddddd" stroke-width="2.0" stroke-dasharray="none" opacity="1.0" fill="#dddddd"/></g><g id="ProcessOnG1156" transform="matrix(1.0,0.0,0.0,1.0,574.5511921458625,561.0)" opacity="1.0"><path id="ProcessOnPath1157" d="M0.0 0.0L160.0 0.0L160.0 40.0L0.0 40.0Z" stroke="none" stroke-width="0.0" stroke-dasharray="none" opacity="1.0" fill="none"/><g id="ProcessOnG1158" transform="matrix(1.0,0.0,0.0,1.0,0.0,10.625)"><text id="ProcessOnText1159" fill="#000000" font-size="15" x="79.0" y="15.375" font-family="微软雅黑" font-weight="bold" font-style="normal" text-decoration="none" family="微软雅黑" text-anchor="middle" size="15">【上传得祝福】</text></g></g><g id="ProcessOnG1160" transform="matrix(1.0,0.0,0.0,1.0,600.0511921458625,590.0)" opacity="1.0"><path id="ProcessOnPath1161" d="M0.0 0.0L154.5 0.0L154.5 31.20196353436191L0.0 31.20196353436191Z" stroke="none" stroke-width="0.0" stroke-dasharray="none" opacity="1.0" fill="none"/><g id="ProcessOnG1162" transform="matrix(1.0,0.0,0.0,1.0,0.0,0.6009817671809543)"><text id="ProcessOnText1163" fill="#000000" font-size="12" x="0.0" y="12.3" font-family="微软雅黑" font-weight="normal" font-style="normal" text-decoration="none" family="微软雅黑" text-anchor="start" size="12">人数：</text><text id="ProcessOnText1164" fill="#000000" font-size="12" x="0.0" y="27.3" font-family="微软雅黑" font-weight="normal" font-style="normal" text-decoration="none" family="微软雅黑" text-anchor="start" size="12">次数：</text></g></g><g id="ProcessOnG1165" transform="matrix(1.0,0.0,0.0,1.0,551.5511921458625,794.3734221598878)" opacity="1.0"><path id="ProcessOnPath1166" d="M0.0 44.64077840112202L103.0 0.0L206.0 44.64077840112202L103.0 89.28155680224404L0.0 44.64077840112202Z" stroke="#dddddd" stroke-width="2.0" stroke-dasharray="none" opacity="1.0" fill="#dddddd"/></g><g id="ProcessOnG1167" transform="matrix(1.0,0.0,0.0,1.0,571.5511921458625,802.0)" opacity="1.0"><path id="ProcessOnPath1168" d="M0.0 0.0L160.0 0.0L160.0 40.0L0.0 40.0Z" stroke="none" stroke-width="0.0" stroke-dasharray="none" opacity="1.0" fill="none"/><g id="ProcessOnG1169" transform="matrix(1.0,0.0,0.0,1.0,0.0,10.625)"><text id="ProcessOnText1170" fill="#000000" font-size="15" x="79.0" y="15.375" font-family="微软雅黑" font-weight="bold" font-style="normal" text-decoration="none" family="微软雅黑" text-anchor="middle" size="15">【成功上传】</text></g></g><g id="ProcessOnG1171" transform="matrix(1.0,0.0,0.0,1.0,600.0511921458625,831.0)" opacity="1.0"><path id="ProcessOnPath1172" d="M0.0 0.0L154.5 0.0L154.5 31.20196353436191L0.0 31.20196353436191Z" stroke="none" stroke-width="0.0" stroke-dasharray="none" opacity="1.0" fill="none"/><g id="ProcessOnG1173" transform="matrix(1.0,0.0,0.0,1.0,0.0,0.6009817671809543)"><text id="ProcessOnText1174" fill="#000000" font-size="12" x="0.0" y="12.3" font-family="微软雅黑" font-weight="normal" font-style="normal" text-decoration="none" family="微软雅黑" text-anchor="start" size="12">人数：</text><text id="ProcessOnText1175" fill="#000000" font-size="12" x="0.0" y="27.3" font-family="微软雅黑" font-weight="normal" font-style="normal" text-decoration="none" family="微软雅黑" text-anchor="start" size="12">次数：</text></g></g><g id="ProcessOnG1176" transform="matrix(1.0,0.0,0.0,1.0,551.5511921458625,909.5611851332397)" opacity="1.0"><path id="ProcessOnPath1177" d="M0.0 44.64077840112202L103.0 0.0L206.0 44.64077840112202L103.0 89.28155680224404L0.0 44.64077840112202Z" stroke="#dddddd" stroke-width="2.0" stroke-dasharray="none" opacity="1.0" fill="#dddddd"/></g><g id="ProcessOnG1178" transform="matrix(1.0,0.0,0.0,1.0,571.5511921458625,917.1877629733519)" opacity="1.0"><path id="ProcessOnPath1179" d="M0.0 0.0L160.0 0.0L160.0 40.0L0.0 40.0Z" stroke="none" stroke-width="0.0" stroke-dasharray="none" opacity="1.0" fill="none"/><g id="ProcessOnG1180" transform="matrix(1.0,0.0,0.0,1.0,0.0,10.625)"><text id="ProcessOnText1181" fill="#000000" font-size="15" x="79.0" y="15.375" font-family="微软雅黑" font-weight="bold" font-style="normal" text-decoration="none" family="微软雅黑" text-anchor="middle" size="15">【参与活动】</text></g></g><g id="ProcessOnG1182" transform="matrix(1.0,0.0,0.0,1.0,600.0511921458625,946.1877629733519)" opacity="1.0"><path id="ProcessOnPath1183" d="M0.0 0.0L154.5 0.0L154.5 31.20196353436191L0.0 31.20196353436191Z" stroke="none" stroke-width="0.0" stroke-dasharray="none" opacity="1.0" fill="none"/><g id="ProcessOnG1184" transform="matrix(1.0,0.0,0.0,1.0,0.0,0.6009817671809543)"><text id="ProcessOnText1185" fill="#000000" font-size="12" x="0.0" y="12.3" font-family="微软雅黑" font-weight="normal" font-style="normal" text-decoration="none" family="微软雅黑" text-anchor="start" size="12">人数：</text><text id="ProcessOnText1186" fill="#000000" font-size="12" x="0.0" y="27.3" font-family="微软雅黑" font-weight="normal" font-style="normal" text-decoration="none" family="微软雅黑" text-anchor="start" size="12">次数：</text></g></g><g id="ProcessOnG1187" transform="matrix(1.0,0.0,0.0,1.0,574.5511921458625,85.01420056100986)" opacity="1.0"><path id="ProcessOnPath1188" d="M0.0 0.0L160.0 0.0L160.0 40.0L0.0 40.0Z" stroke="none" stroke-width="0.0" stroke-dasharray="none" opacity="1.0" fill="none"/><g id="ProcessOnG1189" transform="matrix(1.0,0.0,0.0,1.0,0.0,10.625)"><text id="ProcessOnText1190" fill="#000000" font-size="15" x="79.0" y="15.375" font-family="微软雅黑" font-weight="bold" font-style="normal" text-decoration="none" family="微软雅黑" text-anchor="middle" size="15">【用户】</text></g></g><g id="ProcessOnG1191" transform="matrix(1.0,0.0,0.0,1.0,609.5511921458625,113.65497896213188)" opacity="1.0"><path id="ProcessOnPath1192" d="M0.0 0.0L160.0 0.0L160.0 40.0L0.0 40.0Z" stroke="none" stroke-width="0.0" stroke-dasharray="none" opacity="1.0" fill="none"/><g id="ProcessOnG1193" transform="matrix(1.0,0.0,0.0,1.0,0.0,12.5)"><text id="ProcessOnText1194" fill="#000000" font-size="12" x="0.0" y="12.3" font-family="微软雅黑" font-weight="normal" font-style="normal" text-decoration="none" family="微软雅黑" text-anchor="start" size="12">总数：</text></g></g><g id="ProcessOnG1195" transform="matrix(1.0,0.0,0.0,1.0,120.66900420757361,921.6163218793828)" opacity="1.0"><path id="ProcessOnPath1196" d="M0.0 33.453015427769984C0.0 -11.151005142589995 167.76437587657784 -11.151005142589995 167.76437587657784 33.453015427769984C167.76437587657784 78.05703599812996 0.0 78.05703599812996 0.0 33.453015427769984Z" stroke="#dddddd" stroke-width="2.0" stroke-dasharray="none" opacity="1.0" fill="#dddddd"/></g><g id="ProcessOnG1197" transform="matrix(1.0,0.0,0.0,1.0,124.5511921458625,919.8815743338007)" opacity="1.0"><path id="ProcessOnPath1198" d="M0.0 0.0L160.0 0.0L160.0 40.0L0.0 40.0Z" stroke="none" stroke-width="0.0" stroke-dasharray="none" opacity="1.0" fill="none"/><g id="ProcessOnG1199" transform="matrix(1.0,0.0,0.0,1.0,0.0,10.625)"><text id="ProcessOnText1200" fill="#000000" font-size="15" x="79.0" y="15.375" font-family="微软雅黑" font-weight="bold" font-style="normal" text-decoration="none" family="微软雅黑" text-anchor="middle" size="15">【邀请新用户】</text></g></g><g id="ProcessOnG1201" transform="matrix(1.0,0.0,0.0,1.0,159.5511921458625,948.5223527349227)" opacity="1.0"><path id="ProcessOnPath1202" d="M0.0 0.0L160.0 0.0L160.0 40.0L0.0 40.0Z" stroke="none" stroke-width="0.0" stroke-dasharray="none" opacity="1.0" fill="none"/><g id="ProcessOnG1203" transform="matrix(1.0,0.0,0.0,1.0,0.0,12.5)"><text id="ProcessOnText1204" fill="#000000" font-size="12" x="0.0" y="12.3" font-family="微软雅黑" font-weight="normal" font-style="normal" text-decoration="none" family="微软雅黑" text-anchor="start" size="12">总数：</text></g></g></g></g></svg>